<?xml version="1.0" encoding="UTF-8"?>
<svg id="svg" xmlns="http://www.w3.org/2000/svg" version="1.1" viewBox="0 0 1124.5 484.4">
  <!-- Generator: Adobe Illustrator 29.5.0, SVG Export Plug-In . SVG Version: 2.1.0 Build 137)  -->
  <defs>
    <style>
      .st0 {
        fill: #c30a14;
      }

      .st1 {
        fill-rule: evenodd;
      }
    </style>
  </defs>
  <path d="M691.6,324.2l82.1-22v-28.5l-45.2,12.1,17.3-31.5q14.9-27.3,19.3-36.9c6.6-14.9,9-26.4,9-41.9,0-28.9-13.8-40.3-40.2-33.2-27.6,7.4-40.2,26.8-40.8,62.9l29.8-8c.4-17.5,3.1-24.8,10.1-26.7,6.4-1.7,8.6,2.2,8.6,14.9s-5.5,29.9-16.5,50.7l-33.6,63.6v24.5Z"/>
  <path d="M785.1,243.5c0,42.1,11.4,55.3,41.3,47.3,29.8-8,41.3-27.3,41.3-69.4v-56.4c0-42.1-11.4-55.3-41.3-47.3s-41.3,27.3-41.3,69.4v56.4ZM836,226.8c0,27.3-1.8,33.9-9.7,36-7.9,2.1-9.7-3.5-9.7-30.8v-50.3c0-27.3,1.8-33.9,9.7-36,7.9-2.1,9.7,3.5,9.7,30.8v50.3Z"/>
  <path d="M876.1,274.8l82.1-22v-28.5l-45.2,12.1,17.3-31.5q14.9-27.3,19.3-36.9c6.6-14.9,9-26.4,9-41.9,0-28.9-13.8-40.3-40.2-33.2-27.6,7.4-40.2,26.8-40.8,62.9l29.8-8c.4-17.5,3.1-24.8,10.1-26.7,6.4-1.7,8.6,2.2,8.6,14.9s-5.5,29.9-16.5,50.7l-33.6,63.6v24.5Z"/>
  <path d="M974.8,171.7l23.3-1.1c2.9-7.6,6.1-11.3,11.2-12.6,7.5-2,9.4,2.6,9.4,22.9s-3.3,31.2-11,33.3c-7,1.9-10.1-4.6-10.5-20.2l-29.6,7.9c.4,13.8,1.8,21.9,5,28,6.6,12.6,18.9,16.6,36.4,11.9,15.6-4.2,27.4-12.8,33.8-24.3,6.1-10.8,8.3-23.6,8.3-46.7s-2-30.7-7.2-36.9c-5.3-6.3-13.6-7.9-26.1-4.5-5.7,1.5-9,2.9-12.7,5.3l1.3-34.2,41-11v-28.5l-69.1,18.5-3.5,92.2Z"/>
  <path class="st1" d="M493.7,251c.3,1.5,0,5.3-.5,6.5-1.5-2.2-1.9-6.2-.7-8.1.9,0,1.1.8,1.3,1.6ZM485.4,262.5c0-.9.2-1.8.2-2.6.5-.7.6-1.6,1.4-1.6.9,0,1.1.9,1.3,1.6.6,2.3.6,4.7.2,7.1-.5,2.7-1,5.4,0,8.1,0,.2.2.5.2.8,0,1.3-.9,2.9-1.6,2.6-1-.4-.9-1.6-1-2.5,0-.4.2-.9.2-1.3.4-2.1.4-4.2-.1-6.3-.5-1.9-1-3.9-.9-6ZM479.4,264.6c.2-1,1.1-1.6,1.8-1.3.7.3,1,1.4.6,2.3-.3.8-.9,1.3-1.7,1-.6-.5-.9-1.2-.7-2.1ZM479.2,275.6c-.5-.7-.5-1.3.1-1.8.3-.2.6,0,.7.4.3.9,0,1.3-.8,1.4ZM668.2,199.4c-1.2,3.8-3.7,7.7-7.3,9.8.2.2.4.3.6.4.6.3.8.8.8,1.4,0,.7,0,1.3.3,1.9.2.5.2.9-.1,1.4-.3.4-.4.8-.5,1.2-.1.6-.3,1.2-.9,1.5-.5.3-.8.8-.8,1.5.1,1.4-.1,2.8.2,4.1.3,1.4.2,2.9.3,4.3,0,.8.1,1.5.3,2.2.2.5.3,1.1.2,1.6-.3,2,.2,4.1,0,6.1,0,1.1-.2,2.1-.3,3.2-.2,1.7-.4,3.4-.4,5.2,0,1.8,0,3.6,0,5.4,0,2.1.2,4.3.5,6.4.2,1.7.3,3.5,0,5.3,0,.2,0,.4,0,.6,0,.8,0,1.6-.2,2.3-.3,1.3-.1,2.7-.2,4,0,1,.5,2,.4,3.1,0,1.6,0,3.2-.1,4.7,0,.9,0,1.6.2,2.4.3,1.2.6,2.3.8,3.5.2,1,0,1.9-.5,2.7-.2.4-.6.7-1.1.9-1.7.6-3.5.3-4.6-2-.7-1.4-1.1-2.7-1-4.3,0-.6.2-1.2.6-1.6,1-1.1,1.3-2.3,1.1-3.8-.2-1.7-.2-3.4-.3-5.1,0-1.1,0-2.2.3-3.3.3-1.8.5-3.6.6-5.5,0-1.4-.3-2.8-.4-4.2-.1-1.5-.3-2.9-.3-4.4,0-1.2-.2-2.4,0-3.6.1-1.3,0-2.7.1-4,0-.9,0-1.7,0-2.6,0-2.1.3-4.1.3-6.2,0-2.3-.2-4.6-.6-6.9-.2-1.5-.5-3.1-.4-4.6,0-1.4-.4-2.6-1.1-3.8-.5-.9-1.1-1.7-1.9-2.3-.3-.2-.6-.5-.9-.8-1.8,2.1-3.5,4.3-5.2,6.4-.8.8-1.5,1.5-1.2,2.7-.4,1.3-1.8,2.4-2.6,3.6.3.7.5,1.4.8,2.1,3.4-3.4,6.5-7.7,9.9-11.3,1.2.6-4.4,6-4.5,6.7-4.1,6.1-12.9,12.9-14.4,20.3-1.2,1-2.5,2.1-3.4,3.7-2.9,1.6-6.3,2.8-7.1,6.6-5.9,5.5-11.6,11.9-17.4,17.7-1.1-1.7,6-5.3,5.5-7.7-2.7.6-4.3,2.7-6.5,4.2-1.3,1.6-4.5,1.1-4.8,3.4,0,1.8-.8,3.6-2.7,3.8-2.8.4-4.5,2.4-6.3,4.4,1.1,1,2.3,2.1,3.4,3.1,3.2-3.4,6.7-7,7.3-7.2-1.2,2.8-3.9,5.3-6.6,7.8,13.1,12,25.8,24.7,37.4,38.2-1,.6-1.9-.3-2.7-.9-4,.2,3.6,7.2,4.8,8.3v-.2s0,.2,0,.2h0c.4,1.4,11.3,13.6,5.4,9.4,0,.2-.1.4-.2.8-4.3-3.1-6.8-8.4-12-10.4-.4,2.4,3.6,4.6,4.4,7-3.2-1.5-4.8-6.6-8.8-7.7-.5,1.6,2.6,3.6,3.4,5.2,2.1,2.8,5.1,5,2.6,8.5,1.9,3.1,3.9,5.8,5.8,9-1.9-1.9-3.3-1.3-5.3-1.5-6-3.9-9-11.7-14.7-16.4-.3,0-.5.2-.8.3-6-4.2-11.4-12.1-17.8-15.5-6-6-13.5-12.2-19.9-17.6-1.2-.7-2.3-1.4-3.5-2.2-1.8,1.9-3.6,3.7-5.4,5.5-6.8,6.5-13.5,14.3-21,20.2-14.1,13.1-28.2,27.5-43.2,39.7-1-1.4,0-2.4.7-3.5-.7-5.4-9.3,4-10.7,5.8h.2s-.2,0-.2,0h0c-2,.2-16.8,15-12,6.8-.3,0-.6-.2-1.1-.3,3.4-5.7,10.3-9,12.1-15.8-3-.9-6,4.7-9.1,5.6-.5-.7,0-1.1.4-1.4,3.3-3.1,7.5-5.5,8.9-10.1-2.1-.9-4.7,3.3-6.8,4.3-3.9,3.2-6.4,6.6-11.5,3.2-4.1,2.6-7.4,5.4-11.6,8.1,2.4-2.7,1.1-4.6,1.1-7.3,4.1-8.2,15-12.3,20.8-19.8-.2-.4-.3-.7-.5-1.2,5.1-7.9,15.6-14.4,19.9-22.8,7.9-7.3,16.1-16.6,23.4-24.3,2-3.4,4.7-6.8,7.8-9.4,2.4-2.4,4.9-4.9,7.3-7.3-4.3-2.7-8.7-5-13.3-6.8-.5-.5-.9-1-1.4-1.5-4.1-.2-7.6-2.4-10.6-5.1-1.2-1.4-2.7.3-4.3,0-2.4-2.6-6.2-2.6-8.5-5.3-1.5-1.2-2.3-2.8-4.1-3.6-1.4-1-1.1-2.9-3.2-3.2-.6-1,0-1.7-.2-2.6-.9-.6-2-1.2-2.1-2.4-1-.3-1.9-.7-2.4-1.6-1.1-.9-2.5-1.6-2.7-3-1-2.1-1.9-4.2-3.4-5.8-.3,2.9-.6,5.8.3,8.6.3.8.2,1.8.2,2.7,0,.9-.5,1.6-1.3,1.6-.7,0-1.1-.7-1.2-1.4-.1-1.1-.2-2.2-.1-3.3.3-2.9-.1-5.6-1.2-8.3-.7-1.8-1.1-3.6-1.3-5.6-.5-.6-.9-1.2-1.1-2.1,0-.6-.2-1.1-.5-1.6-.7.8-1.8,1.1-2.7.7-1.4-.6-1.9-2.4-1.4-4.1,0,0,0-.2.1-.3-1-.7-1.9-1.4-2.6-2.3,1.1,0,1.9,0,2.9,0-.2-.4-.4-.7-.6-1.2.5-.1.8-.2,1.3-.4,0-.3,0-.6.1-1,.6.2,1.1.3,1.9.6-.7-.8-1.1-1.4-1.6-2l.2-.2c2.4,1.4,4.7,3,7.2,4.2-.3-.7-.5-1.2-.1-1.8-.5-1-.7-1.6-.7-2.7.1-2.3-5.8-5.2-1.6-6.4.6-.9-1-2.5.3-3.1.9-.3,0-1.7,1-2.1-.5-.9,0-1.3.8-1.6.2.4.5,1.1.9,1.2,3.2.8,6.5,2.4,8.6,5,5.2,5.4,12,8.7,18.4,12,.5-.2,1-.4,1.5-.6-3.1-2.4-6.7-4.4-10-6.8,1.8-.1,3.9,2.2,5.7,3,5.3,2.8,11.6,8.7,17.5,9.8,7.8,7.1,16.8,12.9,25.2,19.8-1.7.4-4.5-4.2-6.6-3.9.9,2,2.7,3.1,4.1,4.7,1.4,1,1.4,3.3,3.2,3.5,1.4,0,2.8.6,3.2,2,.7,1.9,2.2,3.1,3.9,4.3.6-.8,1.3-1.6,1.9-2.4-2.1-1.6-4.2-3.3-6.1-5.1.7-.5,1.7.9,2.4,1.3,1.3,1,2.7,2.2,4.1,3.3,4.1-5.5,7.7-11.2,10.5-17.2.7-.5,1.4-1,2.2-1.5.4-5.3,3.4-9.6,7.4-12.9,2-1.3-.3-3.8.2-5.7,3.8-2.6,3.9-7.7,7.8-10,1.7-1.6,4-2.3,5.2-4.5,1.4-1.6,4.1-.7,4.6-3.3,1.4-.5,2.3.4,3.6.5.9-1,1.8-2.3,3.5-2.1.5-1.2,1-2.3,2.3-2.7,1.3-1.3,2.3-2.9,4.4-2.7,4.7-1.3,8-1.3,11.1-5.4,1.4.9-1.2,1.9-1.3,3.3,3.8-1,5-5.9,9.3-5.9,1.5.2,2.7,0,3.7-.7,0,0,0-.1,0-.2-.3-.5-.2-.7.3-1,.1,0,.3,0,.5-.1.5-.1.6-.5.6-.9,0-.5-.2-1.1-.2-1.6,0-.8.2-1.2,1-1.2,1,.1,1.7-.3,2.4-1,.2-.2.4-.5.8-.3.4.1.7-.1.9-.4.6-.7,1.2-.7,2-.4.9.4,1.1.2,1.5-.7.3-.8.7-1,1.4-.5.4.2.7.5,1.1.7.6.4,1.1.7,1.9.3.5-.3,1.1.2,1.5.6.7.8,1.5,1.2,2.5,1.1.2.6.3,1.2.5,1.7.2.7.5,1.2,1.4,1.2.6,0,.8.4.6,1.1-.3.6,0,.9.4,1.2.3.3.6.4.9.1.1-.1.3-.2.5-.2l2.4,3.5c-.3.3-.6.5-1.1.5-.9,0-1.5.6-1.7,1.5,0,.3-.2.6-.3.9-.1.2-.3.1-.5.1-.2,0-.3,0-.4,0,.7.1,1.3.8,1.6,2.4,1.3,1.1,3.6-.6,4.3,1.3.4,1.3,2.4.5,2.9,1.9,1.3-.4,1.8.3,2.2,1.5-.6.2-1.5.4-1.7.9ZM485.7,206.4c-.2,0-.4,0-.5,0,.2.5.1,1.2.7,1.4,0-.5,0-1-.2-1.5ZM487.8,236.5c0,0,.1,0,.2,0,0,0,0-.1-.1-.2,0,0,0,.1,0,.2ZM488.5,222.2c-.2-.1-.4-.2-.6,0,.2.3.5.6.9.3l-.2-.3ZM518.2,224h0c0,0,0,0,0,0h-.1ZM520.2,225.6c.7,1,1.5,1.5,2.4,2-.5-1-.8-1.2-2.4-2ZM636.1,240.4c1.5-.4,1.7-.7,2.8-2.7-1.3.6-2.2,1.5-2.8,2.7ZM641.1,235.5h0c0,.1.1,0,.1,0h-.1ZM667.7,196.9c-.7.2-1.7-.2-2,.5.7.2,1.3.4,2.1.1,0-.3,0-.5,0-.7Z"/>
  <path d="M51.1,297.3c0,3,.4,4.7,1.1,6,1.5,2.7,4.1,3.5,8.1,2.5,6.2-1.7,9.3-5.9,9.3-12.8s-.8-5.7-2.5-6.7c-1.1-.7-2-.9-5.2-1.2-3.1-.3-4-1.1-4-3.5s.8-4.4,2.4-4.9c1.7-.5,2.2.4,2.5,4.1l6-1.6c0-2.8-.4-4.4-1.1-5.7-1.5-2.5-3.9-3.3-7.6-2.3-5.6,1.5-8.4,5.7-8.4,12.4s2,7.5,7,7.9c3.2.3,3.2.3,3.9.8.5.5.8,1.3.8,2.7,0,3.2-.9,4.7-3.2,5.3-2.2.6-3-.7-3.1-4.5l-6,1.6Z"/>
  <path d="M84.8,288.2c0,3.8-1,5.6-3.1,6.1-2.3.6-3-.7-3-6.4v-9.1c0-5.7.6-7.3,2.8-7.9,1.9-.5,2.6.3,2.9,4l6-1.6c0-2.8-.4-4.4-1.1-5.7-1.5-2.5-4.1-3.3-7.9-2.2-3.2.9-5.6,2.5-7.1,4.9-1.5,2.2-2,5-2,9.9v10.1c0,4.3.5,6.8,1.6,8.3,1.5,1.9,4.1,2.4,7.7,1.5,3.6-1,6.1-2.9,7.7-5.9,1.1-2,1.5-4,1.5-7.5l-6,1.6Z"/>
  <path d="M93.7,296.2l6.5-1.7v-14.1l5.6-1.5v14.1l6.5-1.7v-33.7l-6.5,1.7v13.9l-5.6,1.5v-13.9l-6.5,1.7v33.7Z"/>
  <path d="M116.2,290.2l16.3-4.4v-5.7l-9.8,2.6v-8.4l8-2.1v-5.7l-8,2.1v-8.2l9.5-2.6v-5.7l-16,4.3v33.7Z"/>
  <path d="M135.6,285l8.2-2.2c7.8-1.9,10.6-5.6,10.5-13.4v-12.6c.1-7.9-2.7-10-10.5-7.8l-8.2,2.2v33.7ZM142.1,277.7v-22.6l2-.5c3.2-.8,3.7-.1,3.7,5.3v10.1c0,5.4-.5,6.3-3.7,7.2l-2,.5Z"/>
  <path d="M157.7,245.4v22.7c0,4.1.3,5.9,1.2,7.2,1.5,2.4,4,2.9,8.2,1.8,3.9-1.1,6.2-2.7,7.8-5.5,1.2-2.1,1.5-4.1,1.5-8.5v-22.7l-6.5,1.7v22.7c0,4.9-.5,6-3,6.7-2.2.6-2.8-.4-2.8-5.2v-22.7l-6.5,1.7Z"/>
  <path d="M180.3,273l16.2-4.3v-5.7l-9.7,2.6v-28l-6.5,1.7v33.7Z"/>
  <path d="M199.2,268l16.3-4.4v-5.7l-9.8,2.6v-8.4l8-2.1v-5.7l-8,2.1v-8.2l9.5-2.6v-5.7l-16,4.3v33.7Z"/>
  <path d="M218.6,262.8l8.2-2.2c7.8-1.9,10.6-5.6,10.5-13.4v-12.6c.1-7.9-2.7-10-10.5-7.8l-8.2,2.2v33.7ZM225.1,255.5v-22.6l2-.5c3.2-.8,3.7-.1,3.7,5.3v10.1c0,5.4-.5,6.3-3.7,7.2l-2,.5Z"/>
  <path d="M251.8,253.9l6.5-1.7v-28l5.6-1.5v-5.7l-17.7,4.7v5.7l5.6-1.5v28Z"/>
  <path d="M266.1,239c0,3.7.4,5.8,1.4,7.3,1.5,2.3,4,2.8,8.3,1.7,4-1.1,6.3-2.7,7.9-5.4,1.2-2.2,1.7-4.6,1.7-8.7v-11.7c0-3.7-.4-5.8-1.4-7.3-1.5-2.3-4-2.8-8.2-1.7-4.1,1.1-6.4,2.7-7.9,5.4-1.2,2.2-1.7,4.6-1.7,8.7v11.7ZM278.8,235.1c0,5.2-.6,6.6-3.1,7.3-2.5.7-3.1-.4-3.1-5.6v-10.6c0-5.2.6-6.6,3.1-7.3,2.5-.7,3.1.4,3.1,5.6v10.6Z"/>
  <path d="M308.8,232.2l1.3,6.1,7-1.9-9.3-31.3-5.5,1.5-9.3,36.2,7.1-1.9,1.3-6.8,7.3-2ZM307.7,227l-5.1,1.4,2.5-13.1,2.6,11.8Z"/>
  <path d="M319.1,235.8l6.5-1.7v-33.7l-6.5,1.7v33.7Z"/>
  <path d="M336,217.8l1.2-.3,4.4,12.4,7.2-1.9-5.2-12.7c3.1-2.4,4.1-4.8,4.1-10.8s-.6-5.9-2.2-7.2c-1.5-1.3-3.4-1.3-7.4-.2l-8.6,2.3v33.7l6.5-1.7v-13.6ZM335.8,212.5v-9.3l2-.5c2.5-.7,3.3.3,3.3,3.9s-.3,2.9-.8,3.8c-.5.9-1.1,1.3-2.6,1.6l-1.9.5Z"/>
  <path d="M357.9,214.4c0,3.7.4,5.8,1.4,7.3,1.5,2.3,4,2.8,8.3,1.7,4-1.1,6.3-2.7,7.9-5.4,1.2-2.2,1.7-4.6,1.7-8.7v-11.7c0-3.7-.4-5.8-1.4-7.3-1.5-2.3-4-2.8-8.2-1.7-4.1,1.1-6.4,2.7-7.9,5.4-1.2,2.2-1.7,4.6-1.7,8.7v11.7ZM370.6,210.5c0,5.2-.6,6.6-3.1,7.3-2.5.7-3.1-.4-3.1-5.6v-10.6c0-5.2.6-6.6,3.1-7.3,2.5-.7,3.1.4,3.1,5.6v10.6Z"/>
  <path d="M380.7,219.3l6.1-1.6v-20.2l7.3,18.2,6.2-1.7v-33.7l-6.1,1.6v19.8l-7-17.9-6.5,1.7v33.7Z"/>
  <path d="M623.1,148l1.3,6.1,7-1.9-9.3-31.3-5.5,1.5-9.3,36.2,7.1-1.9,1.3-6.8,7.3-2ZM622,142.7l-5.1,1.4,2.5-13.1,2.6,11.8Z"/>
  <path d="M633.4,151.6l6.1-1.6v-20.2l7.3,18.2,6.2-1.7v-33.7l-6.1,1.6v19.8l-7-17.9-6.5,1.7v33.7Z"/>
  <path d="M656.9,145.3l8.2-2.2c7.8-1.9,10.6-5.6,10.5-13.4v-12.6c.1-7.9-2.7-10-10.5-7.8l-8.2,2.2v33.7ZM663.4,138v-22.6l2-.5c3.2-.8,3.7-.1,3.7,5.3v10.1c0,5.4-.5,6.3-3.7,7.2l-2,.5Z"/>
  <path d="M686.3,126.5c0,3.7.4,5.8,1.4,7.3,1.5,2.3,4,2.8,8.3,1.7,4-1.1,6.3-2.7,7.9-5.4,1.2-2.2,1.7-4.6,1.7-8.7v-11.7c0-3.7-.4-5.8-1.4-7.3-1.5-2.3-4-2.8-8.2-1.7-4.1,1.1-6.4,2.7-7.9,5.4-1.2,2.2-1.7,4.6-1.7,8.7v11.7ZM699,122.5c0,5.2-.6,6.6-3.1,7.3-2.5.7-3.1-.4-3.1-5.6v-10.6c0-5.2.6-6.6,3.1-7.3,2.5-.7,3.1.4,3.1,5.6v10.6Z"/>
  <path d="M713.3,130.2l6.5-1.7v-28l5.6-1.5v-5.7l-17.7,4.7v5.7l5.6-1.5v28Z"/>
  <path d="M728,126.3l6.5-1.7v-14.1l5.6-1.5v14.1l6.5-1.7v-33.7l-6.5,1.7v13.9l-5.6,1.5v-13.9l-6.5,1.7v33.7Z"/>
  <path d="M750.5,120.2l16.3-4.4v-5.7l-9.8,2.6v-8.4l8-2.1v-5.7l-8,2.1v-8.2l9.5-2.6v-5.7l-16,4.3v33.7Z"/>
  <path d="M776.4,99.7l1.2-.3,4.4,12.4,7.2-1.9-5.2-12.7c3.1-2.4,4.1-4.8,4.1-10.8s-.6-5.9-2.2-7.2c-1.5-1.3-3.4-1.3-7.4-.2l-8.6,2.3v33.7l6.5-1.7v-13.6ZM776.3,94.5v-9.3l2-.5c2.5-.7,3.3.3,3.3,3.9s-.3,2.9-.8,3.8c-.5.9-1.1,1.3-2.6,1.6l-1.9.5Z"/>
  <path d="M798.9,107.3l6.1-1.6v-20.2l7.3,18.2,6.2-1.7v-33.7l-6.1,1.6v19.8l-7-17.9-6.5,1.7v33.7Z"/>
  <path d="M822.4,101l16.3-4.4v-5.7l-9.8,2.6v-8.4l8-2.1v-5.7l-8,2.1v-8.2l9.5-2.6v-5.7l-16,4.3v33.7Z"/>
  <path d="M846.1,94.6l6.5-1.7v-28l5.6-1.5v-5.7l-17.7,4.7v5.7l5.6-1.5v28Z"/>
  <path d="M865.7,89.4l5.9-1.6,4.3-21.9,4.3,19.6,5.9-1.6,5.9-35.3-6.5,1.7-2.7,22.7-4.4-20.8-5.1,1.4-4.4,23.2-2.6-21.3-6.5,1.7,5.9,32.2Z"/>
  <path d="M893.9,70.8c0,3.7.4,5.8,1.4,7.3,1.5,2.3,4,2.8,8.3,1.7,4-1.1,6.3-2.7,7.9-5.4,1.2-2.2,1.7-4.6,1.7-8.7v-11.7c0-3.7-.4-5.8-1.4-7.3-1.5-2.3-4-2.8-8.2-1.7-4.1,1.1-6.4,2.7-7.9,5.4-1.2,2.2-1.7,4.6-1.7,8.7v11.7ZM906.7,66.8c0,5.2-.6,6.6-3.1,7.3-2.5.7-3.1-.4-3.1-5.6v-10.6c0-5.2.6-6.6,3.1-7.3,2.5-.7,3.1.4,3.1,5.6v10.6Z"/>
  <path d="M923.3,60.4l1.2-.3,4.4,12.4,7.2-1.9-5.2-12.7c3.1-2.4,4.1-4.8,4.1-10.8s-.6-5.9-2.2-7.2c-1.5-1.3-3.4-1.3-7.4-.2l-8.6,2.3v33.7l6.5-1.7v-13.6ZM923.1,55.1v-9.3l2-.5c2.5-.7,3.3.3,3.3,3.9s-.3,2.9-.8,3.8c-.5.9-1.1,1.3-2.6,1.6l-1.9.5Z"/>
  <path d="M938.8,69.8l6.5-1.7v-12.3l1.1-2.3,5,12.9,7.2-1.9-8.3-17.7,8.2-16-7.1,1.9-6.1,12.8v-11.2l-6.5,1.7v33.7Z"/>
  <path d="M958.5,54.1c0,3,.4,4.7,1.1,6,1.5,2.7,4.1,3.5,8.1,2.5,6.2-1.7,9.3-5.9,9.3-12.8s-.8-5.7-2.5-6.7c-1.1-.7-2-.9-5.2-1.2-3.1-.3-4-1.1-4-3.5s.8-4.4,2.4-4.9c1.7-.5,2.2.4,2.5,4.1l6-1.6c0-2.8-.4-4.4-1.1-5.7-1.5-2.5-3.9-3.3-7.6-2.3-5.6,1.5-8.4,5.7-8.4,12.4s2,7.5,7,7.9c3.2.3,3.2.3,3.9.8.5.5.8,1.3.8,2.7,0,3.2-.9,4.7-3.2,5.3-2.2.6-3-.7-3.1-4.5l-6,1.6Z"/>
  <path d="M987.3,56.8l6.5-1.7v-13.9l7.6-2v-5.7l-7.6,2v-8.4l9.3-2.5v-5.7l-15.8,4.2v33.7Z"/>
  <path d="M1012.6,36.5l1.2-.3,4.4,12.4,7.2-1.9-5.2-12.7c3.1-2.4,4.1-4.8,4.1-10.8s-.6-5.9-2.2-7.2c-1.5-1.3-3.4-1.3-7.4-.2l-8.6,2.3v33.7l6.5-1.7v-13.6ZM1012.4,31.2v-9.3l2-.5c2.5-.7,3.3.3,3.3,3.9s-.3,2.9-.8,3.8c-.5.9-1.1,1.3-2.6,1.6l-1.9.5Z"/>
  <path d="M1027.2,35.1c0,3.7.4,5.8,1.4,7.3,1.5,2.3,4,2.8,8.3,1.7,4-1.1,6.3-2.7,7.9-5.4,1.2-2.2,1.7-4.6,1.7-8.7v-11.7c0-3.7-.4-5.8-1.4-7.3-1.5-2.3-4-2.8-8.2-1.7-4.1,1.1-6.4,2.7-7.9,5.4-1.2,2.2-1.7,4.6-1.7,8.7v11.7ZM1040,31.1c0,5.2-.6,6.6-3.1,7.3-2.5.7-3.1-.4-3.1-5.6v-10.6c0-5.2.6-6.6,3.1-7.3,2.5-.7,3.1.4,3.1,5.6v10.6Z"/>
  <path d="M1050,40l6.2-1.7v-18.5l3.4,10.2,4.1-1.1,3.4-12.1v18.5l6.2-1.7V0l-6,1.6-5.6,18.8-5.7-15.7-6,1.6v33.7Z"/>
  <path class="st0" d="M118.2,310v108.9c0,27.3-1.8,34.1-9,36-5.3,1.4-10.3-.5-17.1-6.7l-18.7,27.3c12.7,9.3,22.4,10.9,39.1,6.5,16.7-4.5,27.9-13.8,33.6-28,3.5-8.9,4.6-18.2,4.6-44.3v-108.4l-32.5,8.7Z"/>
  <path class="st0" d="M167.3,296.8v113.1c0,20.5,1.5,29.2,6.1,36,7.7,11.8,20,14.4,40.8,8.8,19.5-5.2,30.9-13.2,39.1-27.4,5.9-10.3,7.7-20.2,7.7-42.5v-113.1l-32.5,8.7v113.1c0,24.5-2.6,30.1-14.9,33.4-11.2,3-13.8-1.9-13.8-25.7v-113.1l-32.5,8.7Z"/>
  <path class="st0" d="M278.2,435l80.7-21.6v-28.5l-48.3,12.9v-139.5l-32.5,8.7v167.9Z"/>
  <path class="st0" d="M379.6,407.8l32.5-8.7v-56.7l39.1-121.7-34.4,9.2-20.8,75.7-21.1-64.4-34.2,9.2,39.1,100.8v56.7Z"/>
  <path class="st0" d="M416.7,209.7l8.1-2.2v-34.9l7-1.9v-7.1l-22.1,5.9v7.1l7-1.9v34.9Z"/>
  <path class="st0" d="M443.7,202.5l7.2-1.9,10.3-44.7-8.1,2.2-5.8,30.3-5.8-27.1-8.1,2.2,10.3,39.2Z"/>
  <path class="st0" d="M476.7,193.6l8.1-2.2v-34.9l7-1.9v-7.1l-22.1,5.9v7.1l7-1.9v34.9Z"/>
  <path class="st0" d="M494.4,175.2c0,4.6.5,7.2,1.7,9.1,1.9,2.9,4.9,3.5,10.3,2.1,5-1.3,7.9-3.4,9.8-6.7,1.5-2.7,2.1-5.7,2.1-10.8v-14.6c0-4.6-.5-7.2-1.7-9.1-1.9-2.9-4.9-3.5-10.3-2.1-5,1.4-8,3.4-9.9,6.8-1.5,2.7-2.1,5.7-2.1,10.8v14.6ZM510.2,170.2c0,6.5-.8,8.3-3.8,9.1-3.1.8-3.9-.5-3.9-7v-13.2c0-6.5.8-8.3,3.9-9.1,3.1-.8,3.8.5,3.8,7v13.2Z"/>
  <path class="st0" d="M522.6,181.3l8.1-2.2v-15.3l1.4-2.8,6.2,16.1,8.9-2.4-10.3-22,10.2-20-8.8,2.4-7.6,16v-13.9l-8.1,2.2v42Z"/>
  <path class="st0" d="M557.1,172.1l8.1-2.2v-14.2l9.8-30.4-8.6,2.3-5.2,18.9-5.3-16.1-8.6,2.3,9.8,25.2v14.2Z"/>
  <path class="st0" d="M575.3,153.5c0,4.6.5,7.2,1.7,9.1,1.9,2.9,4.9,3.5,10.3,2.1,5-1.3,7.9-3.4,9.8-6.7,1.5-2.7,2.1-5.7,2.1-10.8v-14.6c0-4.6-.5-7.2-1.7-9.1-1.9-2.9-4.9-3.5-10.3-2.1-5,1.4-8,3.4-9.9,6.8-1.5,2.7-2.1,5.7-2.1,10.8v14.6ZM591.1,148.5c0,6.5-.8,8.3-3.8,9.1-3.1.8-3.9-.5-3.9-7v-13.2c0-6.5.8-8.3,3.9-9.1,3.1-.8,3.8.5,3.8,7v13.2Z"/>
</svg>